<?xml version="1.0" encoding="UTF-8" standalone="no"?>
<svg width="43px" height="42px" viewBox="0 0 43 42" version="1.1" xmlns="http://www.w3.org/2000/svg" xmlns:xlink="http://www.w3.org/1999/xlink" xmlns:sketch="http://www.bohemiancoding.com/sketch/ns">
    <!-- Generator: Sketch 3.4.3 (16618) - http://www.bohemiancoding.com/sketch -->
    <title>Slice 1</title>
    <desc>Created with Sketch.</desc>
    <defs></defs>
    <g id="Page-1" stroke="none" stroke-width="1" fill="none" fill-rule="evenodd" sketch:type="MSPage">
        <g id="noun_7848_cc" sketch:type="MSLayerGroup" fill="#000000">
            <path d="M37.948,8.271 C34.158,3.412 28.261,0.278 21.623,0.287 C15.004,0.295 9.131,3.426 5.352,8.269 C2.613,11.782 0.968,16.19 0.975,20.99 C0.99,32.409 10.26,41.654 21.68,41.638 C33.099,41.622 42.342,32.352 42.326,20.934 C42.32,16.155 40.677,11.769 37.948,8.271 L37.948,8.271 Z M11.202,14.402 C11.201,13.64 11.462,12.944 11.888,12.378 C13.79,13.192 15.815,13.776 17.927,14.094 C17.936,14.194 17.957,14.29 17.957,14.393 C17.959,16.258 16.449,17.772 14.584,17.775 C12.719,17.778 11.205,16.267 11.202,14.402 L11.202,14.402 Z M27.804,31.829 L15.499,31.829 C13.845,31.829 12.504,30.488 12.504,28.834 C12.504,27.181 13.845,25.84 15.499,25.84 L27.804,25.84 C29.458,25.84 30.799,27.181 30.799,28.834 C30.799,30.488 29.458,31.829 27.804,31.829 L27.804,31.829 Z M28.71,17.756 C26.846,17.759 25.329,16.249 25.328,14.383 C25.328,14.285 25.349,14.193 25.356,14.096 C27.474,13.779 29.505,13.195 31.413,12.378 C31.828,12.938 32.081,13.624 32.083,14.373 C32.086,16.239 30.575,17.753 28.71,17.756 L28.71,17.756 Z" id="Shape" sketch:type="MSShapeGroup"></path>
        </g>
    </g>
</svg>