<?xml version="1.0" encoding="UTF-8" standalone="no"?>
<svg width="100px" height="100px" viewBox="0 0 100 100" version="1.1" xmlns="http://www.w3.org/2000/svg" xmlns:xlink="http://www.w3.org/1999/xlink" xmlns:sketch="http://www.bohemiancoding.com/sketch/ns">
    <!-- Generator: Sketch 3.4.3 (16618) - http://www.bohemiancoding.com/sketch -->
    <title>Group</title>
    <desc>Created with Sketch.</desc>
    <defs></defs>
    <g id="Page-1" stroke="none" stroke-width="1" fill="none" fill-rule="evenodd" sketch:type="MSPage">
        <g id="Group" sketch:type="MSLayerGroup" fill="#000000">
            <path d="M12.742,94.184 C7.12,91.294 3.26,85.436 3.26,78.69 C3.26,69.09 11.07,61.282 20.669,61.282 L20.7,61.282 C20.989,60.146 21.263,59.058 21.521,58.044 C21.238,58.032 20.955,58.023 20.669,58.023 C9.271,58.022 0,67.295 0,78.69 C0,87.538 6.063,95.294 13.896,98.236 C13.896,98.236 12.5,96.295 12.742,94.184 L12.742,94.184 Z" id="Shape" sketch:type="MSShapeGroup"></path>
            <path d="M79.504,58.104 C77.612,58.096 75.785,58.33 74.045,58.803 L72.299,53.722 L71.405,49.465 C71.404,49.463 71.405,49.319 71.404,49.316 L70.911,46.765 L70.908,46.765 C70.646,45.515 69.476,42.167 65.675,42.107 C65.497,42.103 65.329,42.101 65.167,42.1 C65.744,40.393 65.302,38.434 63.88,37.149 C63.88,37.149 44.542,18.584 40.837,17.598 C36.487,16.441 32.071,19.308 31.051,23.693 L24.835,50.444 C24.663,51.19 14.291,92.07 14.291,92.07 C13.474,95.181 15.333,98.365 18.443,99.181 C18.939,99.31 19.436,99.373 19.925,99.373 C22.508,99.373 24.867,97.643 25.553,95.029 L34.657,60.357 L43.133,70.774 L43.133,93.548 C43.133,96.765 45.74,99.37 48.956,99.37 C52.171,99.37 54.777,96.765 54.777,93.548 L54.777,72.81 L70.283,56.898 L71.285,59.795 C63.99,62.941 58.854,70.181 58.813,78.62 C58.762,89.974 67.957,99.255 79.312,99.309 C90.668,99.361 99.947,90.167 100,78.813 C100.053,67.455 90.856,58.155 79.504,58.104 L79.504,58.104 Z M57.633,44.061 C58.524,44.868 59.641,45.264 60.754,45.264 C61.396,45.264 62.035,45.132 62.63,44.87 C63.204,44.863 64.137,44.867 65.608,44.902 C67.524,44.949 67.979,46.825 67.979,46.825 L67.979,46.825 L68.173,47.587 L42.257,47.5 L45.588,33.171 L57.633,44.061 L57.633,44.061 Z M54.772,68.539 C54.733,67.26 54.282,66.027 53.474,65.036 L42.159,51.127 L68.792,51.221 L69.302,53.729 L54.772,68.539 L54.772,68.539 Z M79.327,95.905 C69.848,95.862 62.173,88.116 62.217,78.637 C62.249,71.676 66.434,65.699 72.4,63.022 L78.03,79.317 C78.237,79.917 78.798,80.298 79.404,80.3 C79.561,80.3 79.726,80.275 79.883,80.218 C80.645,79.953 81.049,79.125 80.786,78.364 L75.156,62.059 C76.539,61.705 77.991,61.52 79.486,61.526 C88.967,61.571 96.638,69.317 96.596,78.796 C96.552,88.272 88.808,95.946 79.327,95.905 L79.327,95.905 Z" id="Shape" sketch:type="MSShapeGroup"></path>
            <circle id="Oval" sketch:type="MSShapeGroup" cx="41.66" cy="8.388" r="7.763"></circle>
            <path d="M34.484,68.115 C36.737,71.051 38.078,74.716 38.078,78.69 C38.078,85.867 33.716,92.038 27.503,94.698 L27.637,95.208 C27.754,97.771 26.744,98.394 26.744,98.394 C35.103,95.745 41.339,87.918 41.339,78.691 C41.339,73.102 39.105,68.026 35.486,64.302 L34.484,68.115 L34.484,68.115 Z" id="Shape" sketch:type="MSShapeGroup"></path>
        </g>
    </g>
</svg>