<?xml version="1.0" encoding="UTF-8" standalone="no"?>
<svg width="63px" height="82px" viewBox="0 0 63 82" version="1.1" xmlns="http://www.w3.org/2000/svg" xmlns:xlink="http://www.w3.org/1999/xlink" xmlns:sketch="http://www.bohemiancoding.com/sketch/ns">
    <!-- Generator: Sketch 3.4.3 (16618) - http://www.bohemiancoding.com/sketch -->
    <title>noun_81489_cc</title>
    <desc>Created with Sketch.</desc>
    <defs></defs>
    <g id="Page-1" stroke="none" stroke-width="1" fill="none" fill-rule="evenodd" sketch:type="MSPage">
        <g id="noun_81489_cc" sketch:type="MSLayerGroup" fill="#000000">
            <path d="M59.031,71.779 L55.394,63.945 L59.761,27.455 C59.761,12.61 47.112,0.575 31.509,0.575 C15.905,0.575 3.257,12.61 3.257,27.455 L7.624,63.945 L3.987,71.779 L0.799,71.779 L0.799,81.425 L62.22,81.425 L62.22,71.779 L59.031,71.779 L59.031,71.779 Z M42.944,29.663 C46.739,29.663 48.361,32.743 48.361,34.746 C48.361,36.749 45.284,38.373 41.488,38.373 C37.693,38.373 34.616,34.746 34.616,34.746 C34.616,34.746 39.148,29.663 42.944,29.663 L42.944,29.663 Z M44.872,53.137 C44.872,53.137 38.89,55.308 31.509,55.308 C24.129,55.308 18.146,53.137 18.146,53.137 C18.146,53.137 24.129,48.054 31.509,48.054 C38.89,48.054 44.872,53.137 44.872,53.137 L44.872,53.137 Z M20.325,29.663 C24.12,29.663 28.653,34.746 28.653,34.746 C28.653,34.746 25.576,38.373 21.781,38.373 C17.985,38.373 14.908,36.749 14.908,34.746 C14.908,32.743 16.529,29.663 20.325,29.663 L20.325,29.663 Z" id="Shape" sketch:type="MSShapeGroup"></path>
        </g>
    </g>
</svg>