<?xml version="1.0" encoding="UTF-8" standalone="no"?>
<svg width="64px" height="91px" viewBox="0 0 64 91" version="1.1" xmlns="http://www.w3.org/2000/svg" xmlns:xlink="http://www.w3.org/1999/xlink" xmlns:sketch="http://www.bohemiancoding.com/sketch/ns">
    <!-- Generator: Sketch 3.4.3 (16618) - http://www.bohemiancoding.com/sketch -->
    <title>noun_85874_cc</title>
    <desc>Created with Sketch.</desc>
    <defs></defs>
    <g id="Page-1" stroke="none" stroke-width="1" fill="none" fill-rule="evenodd" sketch:type="MSPage">
        <g id="noun_85874_cc" sketch:type="MSLayerGroup" fill="#000000">
            <path d="M46,86.2 C71.3,81.9 61.9,58 61.9,58 C60.9,61.2 57.7,64.1 55,66.1 C55.4,62.9 58.6,50.2 46.8,31.1 C46.8,31.1 46.4,40.5 43.4,46.2 C42.2,33.6 31.7,0.6 31.7,0.6 C31.7,0.6 20.4,39.2 20.1,46.2 C17.2,39.3 17.9,31.4 17.9,31.4 C5,52.4 8.8,65.7 8.8,66.1 L8.8,66.4 C6.2,64.2 3,61 2.3,57.6 C2.3,57.6 -7.3,79.4 18.1,86.1 L32.4,91 L46,86.2 L46,86.2 Z M43.5,74.9 C42.7,81 32.3,86.1 32.3,86.1 C32.3,86.1 21.1,81.1 21.1,74.9 C21.1,72.3 19.3,68.3 25.5,58.1 C25.5,58.1 25.2,61.9 26.6,65.2 C26.7,61.8 32.2,43.2 32.2,43.2 C32.2,43.2 37.3,59.2 37.9,65.3 C39.3,62.5 39.5,58 39.5,58 C45.3,67.3 43.7,73.4 43.5,74.9 L43.5,74.9 Z" id="Shape" sketch:type="MSShapeGroup"></path>
        </g>
    </g>
</svg>