<?xml version="1.0" encoding="UTF-8" standalone="no"?>
<svg width="88px" height="90px" viewBox="0 0 88 90" version="1.1" xmlns="http://www.w3.org/2000/svg" xmlns:xlink="http://www.w3.org/1999/xlink" xmlns:sketch="http://www.bohemiancoding.com/sketch/ns">
    <!-- Generator: Sketch 3.4.3 (16618) - http://www.bohemiancoding.com/sketch -->
    <title>noun_76295_cc</title>
    <desc>Created with Sketch.</desc>
    <defs></defs>
    <g id="Page-1" stroke="none" stroke-width="1" fill="none" fill-rule="evenodd" sketch:type="MSPage">
        <g id="noun_76295_cc" sketch:type="MSLayerGroup" fill="#000000">
            <path d="M83.684,67.052 C74.034,74.377 62.042,81.087 46.401,82.949 C58.479,81.468 70.114,84.402 77.904,89.017 C64.665,91.391 52.8,87.587 44.378,83.236 C35.589,87.79 24.142,91.616 10.275,89.306 C18.197,84.776 28.993,81.665 42.067,83.236 C24.771,80.875 12.795,74.633 2.18,65.029 C1.908,64.782 0.188,64.502 1.025,63.583 C18.192,65.975 31.321,72.4 41.777,81.503 C26.944,68.3 13.215,51.489 7.961,27.746 C9.243,27.483 9.776,29.042 10.563,29.77 C16.953,35.667 23.871,42.153 29.06,49.71 C35.138,58.564 39.166,69.153 42.933,80.06 C40.405,66.79 35.869,51.861 36.574,35.838 C37.152,22.697 41.498,10.938 44.088,0 C47.376,11.413 50.702,24.076 51.315,37.572 C51.977,52.197 47.231,68.537 44.956,79.769 L44.956,80.347 C51.153,58.51 63.712,38.988 80.505,27.746 C74.256,50.88 61.739,67.749 46.111,81.503 C56.815,72.649 68.966,65.245 87.152,63.873 C87.589,65.133 85.078,65.995 83.684,67.052 L83.684,67.052 Z" id="Shape" sketch:type="MSShapeGroup"></path>
        </g>
    </g>
</svg>