<?xml version="1.0" encoding="UTF-8" standalone="no"?>
<svg width="138px" height="138px" viewBox="0 0 138 138" version="1.1" xmlns="http://www.w3.org/2000/svg" xmlns:xlink="http://www.w3.org/1999/xlink" xmlns:sketch="http://www.bohemiancoding.com/sketch/ns">
    <!-- Generator: Sketch 3.4.3 (16618) - http://www.bohemiancoding.com/sketch -->
    <title>Group</title>
    <desc>Created with Sketch.</desc>
    <defs></defs>
    <g id="Page-1" stroke="none" stroke-width="1" fill="none" fill-rule="evenodd" sketch:type="MSPage">
        <g id="noun_4781_cc" sketch:type="MSLayerGroup">
            <g id="Group" sketch:type="MSShapeGroup">
                <circle id="Oval-1" fill="#F5DF24" cx="69" cy="69" r="69"></circle>
                <path d="M108.691,82.975 C108.169,83.881 107.51,84.744 106.713,85.556 C98.363,94.077 76.753,95.055 69.491,95.137 C62.229,95.055 40.62,94.076 32.27,85.556 C31.473,84.743 30.815,83.881 30.292,82.975 C16.571,90.309 33.86,99.993 33.86,99.993 C36.741,101.973 56.901,113.314 56.901,113.314 C65.65,118.212 69.295,118.009 69.492,117.995 C69.689,118.01 73.335,118.213 82.084,113.314 C82.084,113.314 102.244,101.973 105.125,99.993 C105.125,99.993 122.414,90.309 108.691,82.975 L108.691,82.975 Z" id="Shape" fill="#3F3E36"></path>
                <path d="M69.483,27.225 L69.483,27.225 C69.486,27.226 69.489,27.226 69.492,27.226 L69.502,27.226 L69.502,27.225 C75.536,27.224 79.756,26.55 81.907,25.92 L82.096,25.92 C81.799,25.656 81.204,25.351 80.103,25.021 L71.553,18.72 C71.553,18.72 71.106,18.006 69.502,18 L69.492,18 L69.483,18 C67.879,18.006 67.431,18.72 67.431,18.72 L58.881,25.021 C57.779,25.351 57.185,25.657 56.888,25.92 L57.077,25.92 C59.23,26.55 63.449,27.224 69.483,27.225 L69.483,27.225 Z" id="Shape" fill="#3F3E36"></path>
                <path d="M64.283,41.776 C64.871,41.776 65.374,42.009 65.838,42.278 C66.487,41.591 67.277,41.345 67.953,41.229 L67.953,41.166 C67.659,41.112 67.354,41.037 67.045,40.94 C66.524,40.778 66.062,40.554 65.653,40.357 C65.394,40.232 65.151,40.115 64.921,40.026 C64.556,39.884 64.292,39.824 64.04,39.824 C63.809,39.824 63.572,39.877 63.317,39.986 C62.713,40.244 62.491,40.65 62.522,41.436 C62.535,41.77 62.616,42.155 62.752,42.546 C62.771,42.517 62.79,42.489 62.812,42.462 C63.004,42.213 63.414,41.91 63.765,41.832 C63.94,41.796 64.114,41.776 64.283,41.776 L64.283,41.776 Z" id="Shape" fill="#3F3E36"></path>
                <path id="Shape" fill="#000000" d="M63.682,50.875 C63.68,50.862 63.677,50.849 63.674,50.836 C63.665,50.835 63.655,50.834 63.647,50.833 C63.658,50.847 63.67,50.86 63.682,50.875 L63.682,50.875 Z"></path>
                <path id="Shape" fill="#000000" d="M75.234,50.854 C75.226,50.855 75.218,50.856 75.211,50.857 C75.209,50.868 75.207,50.878 75.205,50.889 C75.215,50.877 75.225,50.866 75.234,50.854 L75.234,50.854 Z"></path>
                <path d="M73.261,42.229 C73.66,41.977 73.975,41.777 74.461,41.777 C74.609,41.777 74.769,41.796 74.944,41.835 C75.297,41.913 75.706,42.216 75.898,42.465 C75.919,42.491 75.938,42.519 75.956,42.547 C76.093,42.155 76.173,41.773 76.186,41.439 C76.216,40.653 75.994,40.247 75.39,39.989 C75.135,39.88 74.9,39.827 74.668,39.827 C74.415,39.827 74.151,39.888 73.786,40.029 C73.557,40.118 73.312,40.235 73.055,40.36 C72.647,40.557 72.184,40.781 71.662,40.943 C71.353,41.04 71.049,41.115 70.755,41.169 L70.755,41.228 C71.503,41.346 72.46,41.597 73.178,42.284 C73.207,42.264 73.234,42.246 73.261,42.229 L73.261,42.229 Z" id="Shape" fill="#3F3E36"></path>
                <path d="M69.483,91.889 L69.492,91.889 L69.502,91.889 C76.444,91.787 97.005,90.836 104.401,83.287 C105.634,82.027 106.411,80.667 106.744,79.167 C106.723,75.263 105.995,35.016 84.96,27.711 C83.841,28.464 82.143,28.897 80.578,29.202 C77.602,29.784 73.666,30.104 69.492,30.105 C65.319,30.104 61.383,29.784 58.407,29.202 C56.842,28.896 55.144,28.464 54.025,27.711 C32.99,35.016 32.262,75.263 32.241,79.167 C32.574,80.667 33.35,82.027 34.584,83.287 C41.98,90.836 62.541,91.787 69.483,91.889 L69.483,91.889 Z M51.084,62.894 C52.058,62.51 53.154,62.33 54.532,62.328 C54.112,62.202 53.705,62.025 53.317,61.772 C53.229,61.715 53.182,61.615 53.193,61.511 C53.204,61.407 53.272,61.32 53.37,61.282 C53.942,61.065 54.558,60.959 55.25,60.959 C55.294,60.959 55.338,60.96 55.382,60.961 C55.107,60.838 54.848,60.697 54.606,60.538 C54.526,60.485 54.479,60.395 54.481,60.301 C54.484,60.205 54.536,60.117 54.618,60.07 C55.03,59.829 55.479,59.712 55.991,59.712 C56.025,59.712 56.058,59.713 56.093,59.714 C55.838,59.55 55.603,59.348 55.399,59.094 C55.341,59.021 55.323,58.924 55.351,58.836 C55.38,58.747 55.451,58.679 55.54,58.654 C55.808,58.58 56.089,58.542 56.375,58.542 C56.495,58.542 56.613,58.549 56.73,58.561 C56.446,58.358 56.192,58.108 55.988,57.791 C55.938,57.713 55.929,57.615 55.967,57.531 C56.004,57.446 56.08,57.385 56.171,57.369 C56.343,57.338 56.52,57.323 56.695,57.323 C56.877,57.323 57.055,57.339 57.231,57.369 C56.924,57.12 56.66,56.816 56.469,56.431 C56.429,56.35 56.431,56.253 56.475,56.174 C56.519,56.095 56.599,56.042 56.689,56.033 C56.782,56.024 56.877,56.019 56.969,56.019 C57.206,56.019 57.434,56.048 57.653,56.1 C57.282,55.777 56.957,55.4 56.71,54.937 C56.665,54.851 56.667,54.749 56.717,54.666 C56.767,54.583 56.856,54.531 56.952,54.531 L56.97,54.531 C57.33,54.531 57.669,54.595 57.99,54.705 C57.508,54.242 57.093,53.714 56.812,53.061 C56.772,52.966 56.788,52.857 56.853,52.777 C56.918,52.698 57.023,52.661 57.124,52.682 C57.55,52.772 57.94,52.922 58.306,53.114 C57.508,52.296 56.791,51.4 56.277,50.347 C56.226,50.244 56.245,50.12 56.324,50.036 C56.402,49.953 56.525,49.927 56.631,49.971 C57.729,50.428 58.626,51.146 59.439,51.95 C59.241,51.581 59.081,51.187 58.971,50.762 C58.946,50.66 58.979,50.553 59.059,50.484 C59.139,50.416 59.251,50.399 59.348,50.44 C60.023,50.73 60.568,51.166 61.043,51.669 C60.925,51.36 60.84,51.036 60.799,50.69 C60.787,50.593 60.827,50.498 60.904,50.439 C60.981,50.379 61.084,50.365 61.174,50.401 C61.687,50.603 62.086,50.918 62.421,51.292 C62.341,50.981 62.3,50.657 62.31,50.317 C62.313,50.223 62.365,50.136 62.447,50.088 C62.529,50.039 62.63,50.037 62.714,50.081 C62.783,50.116 62.849,50.154 62.913,50.193 C62.889,50.095 62.877,49.988 62.879,49.873 C62.886,49.483 63.075,48.957 63.417,48.869 L63.397,48.783 C63.157,48.726 62.988,48.641 62.892,48.529 C62.661,48.258 62.682,47.999 62.741,47.76 C62.794,47.541 62.998,47.346 63.059,47.292 C63.062,47.289 63.064,47.287 63.067,47.285 L62.854,46.317 C62.843,46.292 62.833,46.266 62.823,46.243 C62.499,46.139 62.265,45.834 62.265,45.482 C62.265,45.382 62.284,45.286 62.319,45.194 C62.198,44.967 62.069,44.73 61.971,44.551 C61.83,44.673 61.647,44.747 61.447,44.747 C61.007,44.747 60.649,44.39 60.649,43.949 C60.649,43.834 60.673,43.724 60.717,43.625 C60.432,43.503 60.232,43.22 60.232,42.891 C60.232,42.746 60.27,42.612 60.337,42.495 C60.137,42.35 60.007,42.114 60.007,41.849 C60.007,41.646 60.083,41.461 60.208,41.32 C60.083,41.179 60.007,40.994 60.007,40.791 C60.007,40.49 60.175,40.228 60.421,40.092 C60.371,39.988 60.344,39.871 60.344,39.748 C60.344,39.355 60.629,39.027 61.004,38.962 C61.002,38.941 61.001,38.92 61.001,38.899 C61.001,38.459 61.359,38.101 61.8,38.101 C61.838,38.101 61.875,38.104 61.913,38.109 C62.006,37.772 62.315,37.523 62.682,37.523 C62.831,37.523 62.97,37.564 63.09,37.635 C63.235,37.432 63.472,37.298 63.74,37.298 C63.961,37.298 64.161,37.389 64.305,37.533 C64.441,37.426 64.613,37.362 64.798,37.362 C65.1,37.362 65.362,37.53 65.498,37.776 C65.602,37.727 65.718,37.699 65.841,37.699 C66.177,37.699 66.464,37.907 66.582,38.201 C66.657,38.177 66.736,38.164 66.819,38.164 C67.126,38.164 67.393,38.338 67.526,38.593 C67.603,38.562 67.686,38.542 67.773,38.536 C67.753,38.466 67.74,38.394 67.73,38.321 C67.682,38.244 67.657,38.155 67.657,38.062 L67.657,37.96 C67.657,37.836 67.705,37.717 67.787,37.625 C67.861,37.382 67.991,37.163 68.16,36.982 C68.057,36.966 67.97,36.893 67.937,36.792 C67.937,36.789 67.935,36.786 67.935,36.783 C67.918,36.778 67.903,36.772 67.887,36.764 C67.787,36.712 67.729,36.605 67.74,36.493 C67.795,35.897 67.795,35.279 67.74,34.603 C67.73,34.485 67.796,34.374 67.904,34.328 C67.921,34.321 67.938,34.315 67.956,34.311 C67.958,34.301 67.961,34.291 67.964,34.282 C67.998,34.178 68.091,34.104 68.2,34.094 C68.58,34.059 68.968,34.04 69.353,34.04 C69.738,34.04 70.131,34.059 70.522,34.094 C70.628,34.104 70.719,34.174 70.756,34.274 C70.759,34.282 70.761,34.289 70.763,34.296 C70.784,34.301 70.803,34.308 70.822,34.317 C70.926,34.37 70.985,34.482 70.97,34.597 C70.907,35.096 70.931,35.592 70.956,36.118 C70.962,36.236 70.968,36.354 70.973,36.472 C70.977,36.58 70.917,36.681 70.821,36.729 C70.807,36.737 70.794,36.742 70.779,36.747 C70.777,36.759 70.775,36.771 70.771,36.783 C70.742,36.887 70.655,36.964 70.55,36.98 C70.719,37.161 70.849,37.378 70.923,37.621 C71.007,37.712 71.054,37.832 71.054,37.959 L71.054,38.061 C71.054,38.155 71.029,38.245 70.982,38.323 C70.972,38.395 70.958,38.466 70.938,38.535 C71.025,38.541 71.108,38.56 71.185,38.592 C71.319,38.337 71.585,38.163 71.892,38.163 C71.975,38.163 72.055,38.176 72.13,38.2 C72.247,37.906 72.535,37.698 72.87,37.698 C72.993,37.698 73.109,37.726 73.214,37.775 C73.35,37.529 73.612,37.361 73.913,37.361 C74.1,37.361 74.27,37.424 74.406,37.532 C74.551,37.387 74.751,37.297 74.971,37.297 C75.24,37.297 75.478,37.431 75.622,37.634 C75.741,37.563 75.881,37.522 76.029,37.522 C76.396,37.522 76.706,37.771 76.799,38.108 C76.836,38.103 76.874,38.1 76.912,38.1 C77.352,38.1 77.71,38.457 77.71,38.898 C77.71,38.919 77.709,38.941 77.707,38.961 C78.082,39.026 78.368,39.355 78.368,39.747 C78.368,39.87 78.34,39.986 78.29,40.091 C78.537,40.227 78.705,40.489 78.705,40.79 C78.705,40.993 78.628,41.179 78.503,41.319 C78.628,41.461 78.705,41.645 78.705,41.848 C78.705,42.114 78.574,42.35 78.374,42.494 C78.441,42.611 78.479,42.746 78.479,42.89 C78.479,43.219 78.279,43.502 77.994,43.624 C78.038,43.724 78.062,43.833 78.062,43.948 C78.062,44.388 77.705,44.746 77.264,44.746 C77.064,44.746 76.88,44.672 76.74,44.55 C76.642,44.729 76.513,44.966 76.393,45.193 C76.428,45.285 76.446,45.381 76.446,45.481 C76.446,45.833 76.213,46.138 75.888,46.242 C75.879,46.263 75.869,46.287 75.86,46.309 L75.65,47.288 C75.651,47.289 75.651,47.29 75.652,47.291 C75.714,47.345 75.918,47.54 75.97,47.759 C76.029,47.997 76.051,48.256 75.819,48.528 C75.782,48.572 75.678,48.693 75.329,48.778 L75.305,48.894 C75.764,49.126 75.905,49.737 75.802,50.204 C75.786,50.271 75.767,50.335 75.743,50.393 C75.9,50.288 76.075,50.199 76.27,50.132 C76.357,50.102 76.453,50.117 76.526,50.172 C76.599,50.227 76.64,50.315 76.636,50.406 C76.62,50.717 76.568,51.012 76.487,51.297 C76.808,50.937 77.181,50.622 77.631,50.388 C77.717,50.343 77.819,50.346 77.902,50.397 C77.985,50.447 78.035,50.537 78.035,50.633 C78.035,50.995 77.972,51.331 77.867,51.648 C78.35,51.154 78.902,50.73 79.556,50.443 C79.653,50.401 79.766,50.418 79.846,50.486 C79.927,50.555 79.96,50.664 79.934,50.766 C79.822,51.193 79.659,51.588 79.457,51.96 C80.258,51.174 81.136,50.466 82.185,49.979 C82.289,49.931 82.411,49.952 82.493,50.031 C82.575,50.11 82.6,50.232 82.556,50.337 C82.108,51.404 81.414,52.291 80.629,53.094 C80.979,52.913 81.354,52.773 81.761,52.687 C81.862,52.666 81.965,52.702 82.031,52.781 C82.097,52.86 82.113,52.969 82.073,53.063 C81.801,53.714 81.389,54.242 80.91,54.702 C81.21,54.594 81.525,54.519 81.862,54.488 C81.958,54.479 82.051,54.521 82.109,54.599 C82.167,54.676 82.178,54.778 82.142,54.868 C81.941,55.358 81.632,55.756 81.265,56.09 C81.506,56.034 81.757,56 82.021,56 C82.087,56 82.155,56.003 82.221,56.007 C82.312,56.013 82.395,56.064 82.441,56.143 C82.487,56.221 82.492,56.318 82.453,56.4 C82.265,56.801 81.996,57.114 81.682,57.369 C81.862,57.34 82.043,57.324 82.229,57.324 C82.396,57.324 82.564,57.338 82.728,57.363 C82.822,57.379 82.902,57.44 82.938,57.528 C82.976,57.616 82.965,57.716 82.911,57.794 C82.694,58.104 82.432,58.357 82.144,58.563 C82.276,58.548 82.41,58.541 82.544,58.541 C82.83,58.541 83.112,58.578 83.381,58.652 C83.472,58.677 83.543,58.746 83.571,58.836 C83.599,58.925 83.58,59.023 83.52,59.095 C83.303,59.357 83.054,59.565 82.784,59.733 C82.867,59.729 82.949,59.726 83.032,59.726 C83.453,59.726 83.839,59.79 84.21,59.922 C84.299,59.953 84.365,60.027 84.387,60.119 C84.408,60.21 84.382,60.307 84.317,60.374 C84.074,60.625 83.802,60.818 83.512,60.968 C83.565,60.967 83.616,60.966 83.669,60.966 C84.349,60.966 84.952,61.067 85.513,61.274 C85.611,61.31 85.68,61.398 85.692,61.503 C85.704,61.607 85.656,61.707 85.569,61.765 C85.173,62.023 84.758,62.206 84.329,62.336 C85.694,62.343 86.799,62.499 87.797,62.825 C87.906,62.861 87.983,62.961 87.986,63.076 C87.991,63.191 87.923,63.298 87.817,63.343 C86.855,63.745 85.765,63.933 84.387,63.933 L84.366,63.933 C84.775,64.058 85.173,64.23 85.552,64.469 C85.64,64.524 85.69,64.623 85.681,64.727 C85.671,64.83 85.607,64.919 85.511,64.958 C84.949,65.188 84.341,65.301 83.649,65.301 C83.615,65.301 83.581,65.3 83.547,65.3 C83.8,65.413 84.038,65.543 84.264,65.689 C84.342,65.74 84.389,65.826 84.39,65.918 C84.391,66.011 84.346,66.098 84.269,66.15 C83.866,66.422 83.415,66.555 82.89,66.555 L82.827,66.555 C83.078,66.715 83.31,66.912 83.514,67.159 C83.574,67.231 83.593,67.328 83.565,67.417 C83.538,67.506 83.466,67.575 83.377,67.601 C83.105,67.678 82.818,67.718 82.527,67.718 C82.408,67.718 82.291,67.711 82.173,67.699 C82.456,67.9 82.709,68.147 82.913,68.461 C82.964,68.539 82.972,68.637 82.934,68.722 C82.896,68.807 82.819,68.868 82.728,68.884 C82.557,68.913 82.382,68.928 82.208,68.928 C82.023,68.928 81.843,68.911 81.665,68.882 C81.978,69.135 82.247,69.445 82.44,69.838 C82.481,69.92 82.478,70.017 82.433,70.096 C82.388,70.175 82.306,70.228 82.215,70.235 C82.135,70.242 82.054,70.245 81.974,70.245 C81.719,70.245 81.476,70.213 81.243,70.156 C81.612,70.486 81.932,70.874 82.162,71.344 C82.204,71.432 82.197,71.536 82.142,71.618 C82.087,71.699 81.995,71.746 81.897,71.74 C81.543,71.719 81.207,71.646 80.885,71.535 C81.371,71.998 81.792,72.527 82.076,73.179 C82.117,73.273 82.102,73.382 82.038,73.463 C81.973,73.542 81.869,73.58 81.767,73.56 C81.34,73.473 80.95,73.326 80.584,73.135 C81.38,73.946 82.089,74.837 82.568,75.902 C82.615,76.007 82.592,76.131 82.511,76.212 C82.429,76.293 82.306,76.316 82.201,76.268 C81.136,75.783 80.247,75.067 79.437,74.269 C79.643,74.643 79.813,75.04 79.932,75.468 C79.959,75.57 79.927,75.678 79.849,75.748 C79.771,75.817 79.659,75.837 79.562,75.797 C78.888,75.524 78.342,75.105 77.868,74.611 C77.976,74.923 78.044,75.255 78.054,75.613 C78.057,75.71 78.009,75.801 77.928,75.853 C77.847,75.905 77.743,75.912 77.657,75.869 C77.185,75.638 76.803,75.322 76.477,74.957 C76.56,75.275 76.603,75.605 76.595,75.951 C76.592,76.047 76.54,76.135 76.458,76.182 C76.375,76.231 76.272,76.233 76.188,76.188 C75.796,75.978 75.48,75.702 75.218,75.384 C75.273,75.718 75.275,76.065 75.194,76.429 C75.174,76.517 75.113,76.59 75.029,76.624 C74.945,76.658 74.85,76.649 74.774,76.601 C74.464,76.4 74.224,76.157 74.029,75.884 C74.079,76.262 74.078,76.649 73.998,77.05 C73.98,77.141 73.918,77.216 73.833,77.251 C73.747,77.286 73.65,77.276 73.573,77.225 C73.246,77.004 73.001,76.732 72.811,76.429 C72.849,76.917 72.831,77.411 72.72,77.913 C72.699,78.01 72.627,78.088 72.533,78.117 C72.439,78.146 72.337,78.124 72.263,78.057 C71.968,77.787 71.747,77.48 71.58,77.149 C71.594,77.814 71.527,78.48 71.321,79.141 C71.291,79.24 71.207,79.313 71.105,79.33 C71.002,79.348 70.9,79.308 70.837,79.225 C70.576,78.88 70.391,78.515 70.259,78.136 C70.246,78.984 70.17,79.833 69.965,80.671 C69.96,80.69 69.954,80.707 69.945,80.725 C69.926,80.764 69.912,80.834 69.898,80.903 C69.857,81.103 69.794,81.408 69.48,81.532 C69.447,81.546 69.412,81.552 69.377,81.552 C69.337,81.552 69.297,81.543 69.26,81.526 C69.191,81.494 69.138,81.434 69.114,81.362 C68.767,80.294 68.655,79.193 68.64,78.091 C68.5,78.502 68.301,78.897 68.015,79.265 C67.952,79.346 67.848,79.386 67.745,79.367 C67.643,79.348 67.561,79.274 67.532,79.175 C67.334,78.502 67.281,77.827 67.303,77.157 C67.143,77.487 66.929,77.796 66.641,78.074 C66.569,78.143 66.466,78.169 66.37,78.139 C66.274,78.111 66.201,78.033 66.18,77.935 C66.064,77.42 66.043,76.914 66.082,76.414 C65.894,76.735 65.668,77.018 65.406,77.263 C65.336,77.328 65.235,77.353 65.142,77.326 C65.048,77.299 64.977,77.225 64.952,77.133 C64.836,76.702 64.819,76.286 64.865,75.881 C64.644,76.172 64.361,76.417 63.98,76.583 C63.899,76.618 63.804,76.612 63.728,76.566 C63.652,76.52 63.602,76.44 63.595,76.351 C63.569,76.016 63.596,75.697 63.659,75.389 C63.396,75.7 63.082,75.967 62.696,76.17 C62.611,76.214 62.509,76.212 62.427,76.163 C62.344,76.114 62.293,76.026 62.291,75.93 C62.285,75.586 62.33,75.256 62.412,74.94 C62.077,75.324 61.685,75.659 61.201,75.91 C61.112,75.955 61.006,75.95 60.923,75.894 C60.839,75.84 60.792,75.745 60.799,75.645 C60.824,75.271 60.906,74.922 61.028,74.593 C60.554,75.094 60.011,75.527 59.335,75.811 C59.238,75.852 59.126,75.833 59.047,75.765 C58.967,75.696 58.935,75.586 58.962,75.485 C59.078,75.052 59.245,74.65 59.45,74.27 C58.629,75.077 57.724,75.793 56.642,76.275 C56.537,76.323 56.413,76.298 56.331,76.215 C56.251,76.131 56.23,76.007 56.28,75.902 C56.791,74.846 57.509,73.951 58.309,73.133 C57.941,73.332 57.546,73.49 57.116,73.59 C57.015,73.613 56.91,73.578 56.844,73.499 C56.777,73.421 56.76,73.311 56.799,73.215 C57.076,72.55 57.496,72.013 57.987,71.544 C57.664,71.654 57.322,71.72 56.958,71.72 C56.861,71.72 56.77,71.668 56.721,71.585 C56.671,71.501 56.669,71.397 56.715,71.313 C56.959,70.86 57.282,70.483 57.65,70.157 C57.347,70.236 57.029,70.278 56.693,70.267 C56.601,70.265 56.516,70.216 56.467,70.138 C56.418,70.061 56.411,69.963 56.448,69.879 C56.633,69.464 56.903,69.142 57.222,68.881 C57.029,68.912 56.832,68.93 56.631,68.93 C56.481,68.93 56.329,68.92 56.182,68.9 C56.087,68.887 56.005,68.827 55.966,68.739 C55.928,68.651 55.937,68.551 55.99,68.471 C56.19,68.178 56.441,67.919 56.741,67.697 C56.612,67.712 56.481,67.719 56.349,67.719 C56.065,67.719 55.786,67.682 55.52,67.608 C55.43,67.584 55.36,67.515 55.331,67.426 C55.303,67.338 55.321,67.241 55.379,67.169 C55.592,66.904 55.838,66.695 56.104,66.527 C56.021,66.532 55.936,66.534 55.852,66.534 C55.432,66.534 55.048,66.472 54.677,66.346 C54.588,66.316 54.521,66.242 54.498,66.15 C54.475,66.058 54.502,65.962 54.568,65.893 C54.808,65.645 55.077,65.452 55.364,65.301 L55.284,65.301 C54.554,65.301 53.922,65.164 53.352,64.883 C53.259,64.838 53.201,64.744 53.198,64.642 C53.196,64.539 53.251,64.444 53.342,64.394 C53.713,64.19 54.097,64.041 54.489,63.932 C53.161,63.916 52.074,63.751 51.085,63.414 C50.976,63.377 50.901,63.274 50.898,63.159 C50.906,63.041 50.977,62.937 51.084,62.894 L51.084,62.894 Z" id="Shape" fill="#3F3E36"></path>
                <path d="M69.483,74.146 C75.663,74.146 80.673,69.136 80.673,62.957 C80.673,56.776 75.662,51.767 69.483,51.767 C63.302,51.767 58.293,56.777 58.293,62.957 C58.293,69.137 63.303,74.146 69.483,74.146 L69.483,74.146 Z M69.483,54.826 C73.973,54.826 77.613,58.467 77.613,62.957 C77.613,67.447 73.973,71.087 69.483,71.087 C64.993,71.087 61.352,67.447 61.352,62.957 C61.352,58.467 64.993,54.826 69.483,54.826 L69.483,54.826 Z" id="Shape" fill="#3F3E36"></path>
            </g>
        </g>
    </g>
</svg>