<?xml version="1.0" encoding="UTF-8" standalone="no"?>
<svg width="100px" height="100px" viewBox="0 0 100 100" version="1.1" xmlns="http://www.w3.org/2000/svg" xmlns:xlink="http://www.w3.org/1999/xlink" xmlns:sketch="http://www.bohemiancoding.com/sketch/ns">
    <!-- Generator: Sketch 3.4.3 (16618) - http://www.bohemiancoding.com/sketch -->
    <title>noun_7455_cc</title>
    <desc>Created with Sketch.</desc>
    <defs></defs>
    <g id="Page-1" stroke="none" stroke-width="1" fill="none" fill-rule="evenodd" sketch:type="MSPage">
        <g id="noun_7455_cc" sketch:type="MSLayerGroup" fill="#000000">
            <path d="M49.99,0 C22.381,0 0,22.381 0,49.99 C0,77.598 22.381,99.98 49.99,99.98 C77.599,99.98 99.98,77.598 99.98,49.99 C99.98,22.381 77.599,0 49.99,0 L49.99,0 Z M55.301,72.969 C55.301,77.017 52.182,80.135 47.966,80.135 C43.749,80.135 40.63,77.017 40.63,72.969 L40.63,72.8 C40.63,68.752 43.749,65.632 47.966,65.632 C52.182,65.632 55.301,68.752 55.301,72.8 L55.301,72.969 L55.301,72.969 Z M70.06,37.467 C70.06,48.176 62.639,52.563 53.449,54.418 L53.196,57.478 C52.857,59.669 51.086,61.609 48.641,61.609 L45.816,61.609 C43.37,61.609 41.599,59.755 41.263,57.478 L41.263,50.201 C40.841,47.418 43.749,45.477 46.45,45.14 C53.785,44.214 57.158,41.937 57.158,37.805 L57.158,37.636 C57.158,33.842 54.291,31.649 49.399,31.649 C45.774,31.649 42.654,32.746 39.619,35.022 C38.606,35.781 37.257,36.372 35.823,36.372 C32.619,36.372 29.92,33.672 29.92,30.47 C29.92,28.866 30.595,27.18 32.114,25.915 C36.583,22.206 42.232,19.843 49.652,19.843 C61.796,19.843 70.06,26.083 70.06,37.298 L70.06,37.467 L70.06,37.467 Z" id="Shape" sketch:type="MSShapeGroup"></path>
        </g>
    </g>
</svg>