<?xml version="1.0" encoding="UTF-8" standalone="no"?>
<svg width="90px" height="58px" viewBox="0 0 90 58" version="1.1" xmlns="http://www.w3.org/2000/svg" xmlns:xlink="http://www.w3.org/1999/xlink" xmlns:sketch="http://www.bohemiancoding.com/sketch/ns">
    <!-- Generator: Sketch 3.4.3 (16618) - http://www.bohemiancoding.com/sketch -->
    <title>noun_36062_cc</title>
    <desc>Created with Sketch.</desc>
    <defs></defs>
    <g id="Page-1" stroke="none" stroke-width="1" fill="none" fill-rule="evenodd" sketch:type="MSPage">
        <g id="noun_36062_cc" sketch:type="MSLayerGroup" fill="#000000">
            <path d="M83.324,2.363 L80.953,0 L77.541,0 L75.172,2.363 L51.423,2.363 L51.423,4.65 L39.403,4.65 L39.403,2.363 L17.572,2.363 L16.183,0.234 L13.692,0.234 L11.791,4.65 L7.503,4.65 L7.503,11.293 C7.503,11.58 6.03,12.793 5.812,13.135 C5.344,13.869 4.793,15.36 5.676,15.922 C6.265,16.284 7.481,16.145 8.16,16.327 C8.695,16.466 9.179,16.647 9.646,16.925 C9.646,16.925 12.826,18.193 12.826,22.707 C12.826,22.707 12.826,27.448 9.587,33.346 C7.971,36.295 0,46.75 0,54.833 C0,58.186 3.698,57.724 3.698,57.724 L22.525,57.724 C22.525,57.724 25.077,56.91 25.077,53.333 L32.414,33.05 C32.414,33.05 33.651,28.929 36.868,31.148 C38.68,32.402 47.587,31.757 50.365,31.757 C53.174,31.757 55.998,29.392 56.511,26.904 L57.204,21.207 C57.204,21.207 57.673,19.477 63.214,19.477 L83.558,19.477 C83.558,19.477 86.765,19.356 86.765,15.657 L86.765,9.014 L89.945,9.014 L89.945,2.364 L83.324,2.363 L83.324,2.363 L83.324,2.363 Z M49.806,28.725 L40.558,28.725 C40.558,28.725 36.111,28.948 36.111,24.087 C36.111,20.131 39.101,19.173 40.732,19.173 C40.006,26.308 45.714,27.245 44.265,23.772 C42.814,20.291 46.529,18.69 46.529,18.69 L46.529,18.69 L50.5,18.729 C50.5,18.729 53.852,18.892 53.852,23.682 C53.851,26.98 52.236,28.725 49.806,28.725 L49.806,28.725 Z" id="Shape" sketch:type="MSShapeGroup"></path>
        </g>
    </g>
</svg>