<?xml version="1.0" encoding="UTF-8" standalone="no"?>
<svg width="52px" height="90px" viewBox="0 0 52 90" version="1.1" xmlns="http://www.w3.org/2000/svg" xmlns:xlink="http://www.w3.org/1999/xlink" xmlns:sketch="http://www.bohemiancoding.com/sketch/ns">
    <!-- Generator: Sketch 3.4.3 (16618) - http://www.bohemiancoding.com/sketch -->
    <title>noun_40020_cc</title>
    <desc>Created with Sketch.</desc>
    <defs></defs>
    <g id="Page-1" stroke="none" stroke-width="1" fill="none" fill-rule="evenodd" sketch:type="MSPage">
        <g id="noun_40020_cc" sketch:type="MSLayerGroup" fill="#000000">
            <g id="Group" sketch:type="MSShapeGroup">
                <path d="M47.526,30.919 C46.504,30.919 45.516,31.29 44.849,31.883 C44.173,32.485 43.851,33.308 43.851,34.215 L43.851,48.311 C43.851,49.835 43.107,50.848 41.671,50.848 C40.132,50.848 39.388,49.835 39.388,48.347 L39.388,30.496 C39.388,28.676 37.037,27.201 34.953,27.201 C33.779,27.201 32.18,28.106 31.517,29.344 C30.718,29.144 29.868,28.969 28.975,28.821 L28.975,3.295 C28.975,1.475 26.922,0 24.838,0 C23.8,0 22.744,0.371 21.977,0.964 C21.212,1.565 20.793,2.389 20.793,3.296 L20.793,28.28 C19.884,28.301 18.995,28.349 18.131,28.419 C17.367,27.264 15.704,26.458 14.164,26.458 C12.611,26.458 10.38,27.804 10.38,29.753 L10.38,29.905 C9.144,30.323 8.087,30.806 7.255,31.341 C6.578,30.634 5.578,30.176 4.429,30.176 C3.047,30.176 1.781,30.916 1.145,31.984 L0.71,31.984 L0.71,64.499 C0.71,66.95 1.841,69.151 3.578,70.662 L36.975,70.662 C37.069,70.604 37.156,70.542 37.227,70.471 L49.058,59.505 C51.289,57.274 51.289,55.147 51.289,53.84 L51.289,34.215 C51.289,32.394 49.577,30.919 47.526,30.919 L47.526,30.919 Z" id="Shape"></path>
                <path d="M1.455,73.636 L1.455,90 L38.645,90 L38.645,73.636 L1.455,73.636 L1.455,73.636 Z M7.033,84.793 C5.595,84.793 4.43,83.628 4.43,82.19 C4.43,80.752 5.596,79.587 7.033,79.587 C8.471,79.587 9.636,80.752 9.636,82.19 C9.636,83.628 8.471,84.793 7.033,84.793 L7.033,84.793 Z" id="Shape"></path>
            </g>
        </g>
    </g>
</svg>