<?xml version="1.0" encoding="UTF-8" standalone="no"?>
<svg width="69px" height="92px" viewBox="0 0 69 92" version="1.1" xmlns="http://www.w3.org/2000/svg" xmlns:xlink="http://www.w3.org/1999/xlink" xmlns:sketch="http://www.bohemiancoding.com/sketch/ns">
    <!-- Generator: Sketch 3.4.3 (16618) - http://www.bohemiancoding.com/sketch -->
    <title>noun_29544_cc</title>
    <desc>Created with Sketch.</desc>
    <defs></defs>
    <g id="Page-1" stroke="none" stroke-width="1" fill="none" fill-rule="evenodd" sketch:type="MSPage">
        <g id="noun_29544_cc" sketch:type="MSLayerGroup" fill="#000000">
            <g id="Group" sketch:type="MSShapeGroup">
                <path d="M25.717,10.47 L43.235,10.47 C43.246,10.47 43.257,10.471 43.267,10.471 L49.064,4.675 C51.195,2.543 50.472,0.799 47.458,0.799 L21.529,0.799 C18.513,0.799 17.791,2.543 19.923,4.675 L25.717,10.47 L25.717,10.47 Z" id="Shape"></path>
                <path d="M42.938,19.173 L26.046,19.173 C14.251,26.667 0.213,45.673 0.162,60.701 C0.109,76.257 8.469,91.862 34.492,91.869 C60.515,91.862 68.874,76.257 68.822,60.701 C68.771,45.673 54.733,26.667 42.938,19.173 L42.938,19.173 Z M36.464,71.771 L36.464,77.185 L32.153,77.185 L32.153,72.086 C28.842,71.981 25.531,71.034 23.639,69.774 L25.058,64.834 C27.107,66.043 30.051,67.146 33.257,67.146 C36.568,67.146 38.828,65.517 38.828,62.994 C38.828,60.629 36.988,59.105 33.099,57.685 C27.58,55.688 24.006,53.166 24.006,48.278 C24.006,43.757 27.159,40.289 32.468,39.343 L32.468,34.192 L36.777,34.192 L36.777,39.08 C40.089,39.185 42.348,39.974 44.031,40.814 L42.611,45.649 C41.35,45.071 39.039,43.862 35.465,43.862 C31.786,43.862 30.472,45.755 30.472,47.541 C30.472,49.697 32.364,50.904 36.83,52.692 C42.717,54.899 45.346,57.738 45.346,62.414 C45.346,66.883 42.244,70.825 36.464,71.771 L36.464,71.771 Z" id="Shape"></path>
                <path d="M43.251,11.92 L25.734,11.92 C24.162,11.92 22.888,13.194 22.888,14.766 L22.888,14.876 C22.888,16.449 24.162,17.723 25.734,17.723 L26.055,17.723 L42.947,17.723 L43.251,17.723 C44.822,17.723 46.097,16.449 46.097,14.876 L46.097,14.766 C46.097,13.205 44.841,11.939 43.284,11.922 C43.273,11.921 43.262,11.92 43.251,11.92 L43.251,11.92 Z" id="Shape"></path>
            </g>
        </g>
    </g>
</svg>