<?xml version="1.0" encoding="UTF-8" standalone="no"?>
<svg width="88px" height="90px" viewBox="0 0 88 90" version="1.1" xmlns="http://www.w3.org/2000/svg" xmlns:xlink="http://www.w3.org/1999/xlink" xmlns:sketch="http://www.bohemiancoding.com/sketch/ns">
    <!-- Generator: Sketch 3.4.3 (16618) - http://www.bohemiancoding.com/sketch -->
    <title>noun_167920_cc</title>
    <desc>Created with Sketch.</desc>
    <defs></defs>
    <g id="Page-1" stroke="none" stroke-width="1" fill="none" fill-rule="evenodd" sketch:type="MSPage">
        <g id="noun_167920_cc" sketch:type="MSLayerGroup" transform="translate(0.000000, -1.000000)" fill="#000000">
            <path d="M36.75,0.999995 C35.793475,1.127531 34.985781,2.0464013 35,3.062495 C35.02903,6.392453 35.08346,9.732122 35.59375,13.031245 C35.67754,13.61458 35.759626,15.058321 36.375,15.093745 C36.990374,15.129165 37.22483,13.694851 37.375,13.124995 C38.260526,9.906248 38.714036,6.585873 39.125,3.281245 C39.274415,2.1295265 38.311301,1.0099201 37.1875,0.999995 C37.047812,0.9851068 36.886646,0.9817756 36.75,0.999995 L36.75,0.999995 Z M24.34375,2.249995 C24.068779,2.2709544 23.80426,2.3568493 23.5625,2.499995 C22.544404,2.975904 22.135621,4.3894389 22.75,5.374995 C24.4967,8.210211 26.294796,11.033782 28.4375,13.593745 C28.810836,14.049695 29.611201,15.256612 30.15625,14.968745 C30.701294,14.680857 30.166113,13.346636 30,12.781245 C29.0936,9.568287 27.763235,6.478559 26.40625,3.437495 C26.05552,2.6402024 25.168662,2.1871169 24.34375,2.249995 L24.34375,2.249995 Z M16.375,11.906245 C15.674747,11.928045 14.988526,12.287409 14.65625,12.906245 C14.030895,13.840026 14.402014,15.255352 15.4375,15.781245 C18.398598,17.304832 21.404778,18.823019 24.5625,19.906245 C25.117817,20.103467 26.432335,20.715721 26.75,20.187495 C27.067673,19.659256 25.903301,18.773062 25.46875,18.374995 C23.031594,16.093589 20.296463,14.151293 17.5625,12.249995 C17.206268,11.999461 16.795152,11.893165 16.375,11.906245 L16.375,11.906245 Z M51.28125,14.718745 C35.751008,14.718745 35.9375,28.281245 35.9375,28.281245 L35.90625,30.031245 C36.848751,31.057249 37.453748,32.437317 37.375,33.843745 C37.085117,34.650625 38.210964,34.230845 38.65625,34.499995 C42.030612,35.115332 43.626553,39.535073 41.8125,42.343745 C43.694839,43.324858 44.753743,45.558396 44.5,47.656245 C44.238458,50.149545 42.09005,51.658558 40,52.749995 C40.683622,54.156613 41.541196,55.418449 42.53125,56.499995 C42.46791,56.538985 42.375841,56.555125 42.3125,56.593745 C36.12319,60.369264 28.758235,62.942974 23.9375,65.499995 C22.608298,66.204541 21.17975,67.426561 20.03125,68.999995 C19.248907,70.082301 18.585663,71.235925 18,72.437495 C17.9787,72.480105 17.95861,72.519695 17.9375,72.562495 C17.85742,72.729311 17.764155,72.925598 17.6875,73.093745 C16.523212,75.585713 15.736808,78.237379 15.28125,80.906245 C15.27175,80.955705 15.25875,81.01304 15.25,81.062495 C15.22908,81.187845 15.20671,81.312146 15.1875,81.437495 C15.1059,81.899711 15.034373,82.358459 14.96875,82.812495 C14.91283,83.186833 14.846662,83.98506 14.875,84.374995 C14.8712,84.398585 14.8769,84.413525 14.875,84.437495 C14.703049,86.87316 19.25,87.656245 19.25,87.656245 C20.961338,88.162399 24.119373,88.737183 27.9375,89.249995 C34.748803,90.374338 41.742122,90.75837 48.59375,90.968745 C49.258732,90.989285 49.932873,90.997525 50.65625,90.999995 L50.8125,90.999995 C51.172572,90.999995 51.534005,91.003795 51.90625,90.999995 C52.629817,90.996195 53.303769,90.989095 53.96875,90.968745 C60.817335,90.75837 67.81655,90.373007 74.625,89.249995 C78.448834,88.736612 81.59945,88.16297 83.3125,87.656245 C83.3125,87.656245 87.859261,86.87316 87.6875,84.437495 C87.6837,84.413905 87.6894,84.398965 87.6875,84.374995 C87.71584,83.98525 87.64967,83.186833 87.59375,82.812495 C87.49998,82.163682 87.376872,81.507775 87.25,80.843745 C86.745558,77.924941 85.860397,74.997148 84.5,72.312495 C84.48478,72.282255 84.48416,72.248805 84.46875,72.218745 C83.908005,71.095543 83.265659,70.016488 82.53125,68.999995 C81.382179,67.426561 79.954202,66.204541 78.625,65.499995 C73.804265,62.943164 66.43912,60.369264 60.25,56.593745 C60.18647,56.555135 60.09459,56.538991 60.03125,56.499995 C61.846253,54.517224 63.200563,51.891678 63.90625,48.937495 C65.989262,46.90641 68.28125,42.976385 68.28125,39.218745 C68.28125,36.71175 67.987655,35.451626 66.71875,35.468745 L66.625,28.281245 C66.625,28.281245 66.811493,14.718745 51.28125,14.718745 L51.28125,14.718745 Z M26.53125,26.249995 C26.006475,26.290545 25.495035,26.473601 25.03125,26.781245 L22.1875,28.656245 L25.40625,32.249995 L28.09375,30.437495 C29.330128,29.611595 29.660656,28.105863 28.8125,27.093745 C28.283592,26.463905 27.405874,26.182412 26.53125,26.249995 L26.53125,26.249995 Z M16.75,26.781245 C15.098547,26.791145 13.498893,27.80876 12.1875,29.062495 L4.65625,34.499995 C0.6144339,37.819006 -0.5528666,47.711608 0.90625,50.031245 C2.7802192,53.526962 5.369318,57.134309 8.1875,60.781245 C9.382412,62.472801 12.565593,62.542855 14.3125,61.781245 L32,54.406245 C29.124184,53.987398 27.613139,51.990362 28.125,48.593745 C24.636891,48.441385 24.927309,44.636531 25.84375,42.218745 C25.92288,41.564226 25.733348,41.036319 24.9375,40.781245 C23.964946,40.883199 21.937703,39.929573 21.40625,39.437495 L17.34375,35.281245 C17.38522,35.57265 17.37734,36.268998 17.40625,36.562495 C17.179897,41.55366 16.091455,46.372019 12.75,50.718745 C11.599977,51.868958 10.782109,52.305807 9.4375,53.156245 C9.090743,53.407135 8.594639,53.346561 8.34375,52.999995 C8.09286,52.653238 8.184684,52.157134 8.53125,51.906245 C18.056119,42.362165 14.338546,36.825859 15.8125,34.687495 C16.169718,33.727494 17.119417,32.893187 18.59375,33.374995 C20.588885,34.736533 21.816568,36.910816 23.46875,38.093745 C25.543013,39.74859 27.991324,37.69581 26.75,35.718745 L19.71875,27.999995 C18.742891,27.111229 17.740872,26.775311 16.75,26.781245 L16.75,26.781245 Z M31.875,31.062495 C31.326273,31.104315 30.771712,31.296459 30.28125,31.656245 L27.03125,34.093745 L28.46875,36.062495 C27.067457,39.136131 28.802161,39.420972 30.28125,38.374995 L33.40625,36.062495 C34.715099,35.097739 35.083454,33.330939 34.21875,32.124995 L34.21875,32.093745 C33.680449,31.337771 32.789545,30.992802 31.875,31.062495 L31.875,31.062495 Z M37.09375,36.937495 C36.524295,36.949325 35.929096,37.138561 35.40625,37.468745 L28,41.999995 C26.605936,42.879155 26.15698,44.604703 27,45.843745 C27.844351,47.082976 29.668245,47.380486 31.0625,46.499995 L38.46875,41.968745 C39.862815,41.089585 40.311961,39.362895 39.46875,38.124995 C38.940912,37.351188 38.042841,36.917779 37.09375,36.937495 L37.09375,36.937495 Z M39.3125,44.437495 C38.759952,44.432395 38.184517,44.59318 37.65625,44.906245 L31.5625,48.249995 C30.152458,49.084646 29.578281,50.772992 30.3125,52.031245 C31.046529,53.290829 32.806236,53.645244 34.21875,52.812495 L40.34375,49.468745 C41.757786,48.634855 42.300523,46.946318 41.5625,45.687495 C41.101236,44.899898 40.233413,44.446021 39.3125,44.437495 L39.3125,44.437495 Z" id="Shape" sketch:type="MSShapeGroup"></path>
        </g>
    </g>
</svg>